<?xml version="1.0" encoding="utf-8"?>
<!-- Svg Vector Icons : http://www.onlinewebfonts.com/icon -->
<!DOCTYPE svg PUBLIC "-//W3C//DTD SVG 1.1//EN" "http://www.w3.org/Graphics/SVG/1.1/DTD/svg11.dtd">
<svg version="1.1" xmlns="http://www.w3.org/2000/svg" xmlns:xlink="http://www.w3.org/1999/xlink" x="0px" y="0px" viewBox="0 0 1000 1000" enable-background="new 0 0 1000 1000" xml:space="preserve" width="current" height="current" fill="current">
<metadata> Svg Vector Icons : http://www.onlinewebfonts.com/icon </metadata>
<g><path d="M500,10C229.4,10,10,229.4,10,500c0,270.7,219.4,490,490,490c270.7,0,490-219.3,490-490C990,229.4,770.7,10,500,10z M653.5,523.2L441.7,735.1c-12.7,12.7-33.5,12.7-46.2,0c-12.7-12.7-12.7-33.5,0-46.2L584.3,500L395.5,311.1c-12.7-12.7-12.7-33.5,0-46.2c12.7-12.7,33.5-12.7,46.2,0l211.9,211.9c6.5,6.4,9.6,14.8,9.5,23.2C663.1,508.4,659.9,516.8,653.5,523.2z"/></g>
</svg>